<?xml version="1.0" standalone="no"?>
<!DOCTYPE svg PUBLIC "-//W3C//DTD SVG 20010904//EN"
 "http://www.w3.org/TR/2001/REC-SVG-20010904/DTD/svg10.dtd">
<svg version="1.0" xmlns="http://www.w3.org/2000/svg"
 width="409.000000pt" height="409.000000pt" viewBox="0 0 409.000000 409.000000"
 preserveAspectRatio="xMidYMid meet">
<metadata>
Created by potrace 1.11, written by Peter Selinger 2001-2013
</metadata>
<g transform="translate(0.000000,409.000000) scale(0.100000,-0.100000)"
fill="#000000" stroke="none">
<path d="M511 2866 c-19 -6 -43 -23 -54 -38 -20 -27 -20 -42 -20 -785 0 -517
4 -767 11 -785 14 -33 51 -59 89 -60 16 0 114 42 238 102 451 220 679 332 905
442 518 254 985 482 1305 638 110 53 250 122 311 152 61 31 120 59 132 62 l20
7 -1 -566 c0 -547 -1 -565 -19 -559 -10 3 -128 59 -261 123 -529 258 -662 321
-680 321 -33 0 -74 -23 -90 -49 -38 -65 -11 -125 76 -165 29 -13 156 -75 282
-136 127 -62 280 -136 340 -165 61 -29 181 -87 267 -129 181 -87 213 -93 259
-47 25 25 29 38 30 83 0 29 0 376 1 770 0 781 3 749 -54 779 -51 28 5 52
-1068 -474 -129 -63 -332 -162 -450 -220 -118 -57 -327 -160 -465 -227 -754
-369 -962 -470 -967 -470 -3 0 -5 254 -5 565 0 311 2 565 4 565 2 0 211 -104
464 -230 369 -184 466 -229 487 -224 72 16 110 85 80 147 -14 29 -67 58 -549
299 -294 147 -545 271 -559 276 -17 6 -37 6 -59 -2z"/>
</g>
</svg>
